<svg width="24" height="24" viewBox="0 0 24 24" fill="none" xmlns="http://www.w3.org/2000/svg">
<path d="M18.4478 13.8743H8.77578C8.43763 13.8743 8.11333 13.74 7.87422 13.5009C7.63511 13.2618 7.50078 12.9375 7.50078 12.5993C7.50078 12.2612 7.63511 11.9369 7.87422 11.6978C8.11333 11.4586 8.43763 11.3243 8.77578 11.3243H18.4478L16.7993 9.67578C16.5613 9.43647 16.428 9.11255 16.4284 8.77505C16.4289 8.43755 16.5632 8.11401 16.8018 7.87535C17.0405 7.6367 17.364 7.50242 17.7015 7.50195C18.039 7.50148 18.3629 7.63486 18.6023 7.87285L22.4273 11.6978C22.5457 11.8162 22.6396 11.9567 22.7037 12.1114C22.7678 12.2661 22.8008 12.4319 22.8008 12.5993C22.8008 12.7667 22.7678 12.9325 22.7037 13.0872C22.6396 13.2419 22.5457 13.3824 22.4273 13.5008L18.6023 17.3258C18.484 17.4447 18.3434 17.5391 18.1886 17.6036C18.0338 17.6681 17.8678 17.7015 17.7 17.7017C17.5323 17.7019 17.3662 17.6691 17.2112 17.605C17.0562 17.5409 16.9154 17.4469 16.7968 17.3283C16.6782 17.2097 16.5842 17.0689 16.5201 16.9139C16.456 16.7589 16.4232 16.5928 16.4234 16.4251C16.4236 16.2573 16.457 16.0913 16.5215 15.9365C16.586 15.7817 16.6804 15.6411 16.7993 15.5229L18.4478 13.8743Z" fill="url(#paint0_linear_638_4716)"/>
<path d="M3.67539 2.40039H13.8754C14.0429 2.4003 14.2087 2.43321 14.3634 2.49725C14.5182 2.56129 14.6587 2.6552 14.7772 2.77362C14.8956 2.89203 14.9895 3.03262 15.0535 3.18736C15.1176 3.34209 15.1505 3.50793 15.1504 3.67539V6.22539C15.1504 6.56354 15.0161 6.88784 14.777 7.12695C14.5378 7.36606 14.2135 7.50039 13.8754 7.50039C13.5372 7.50039 13.2129 7.36606 12.9738 7.12695C12.7347 6.88784 12.6004 6.56354 12.6004 6.22539V4.95039H4.95039V20.2504H12.6004V18.9754C12.6004 18.6372 12.7347 18.3129 12.9738 18.0738C13.2129 17.8347 13.5372 17.7004 13.8754 17.7004C14.2135 17.7004 14.5378 17.8347 14.777 18.0738C15.0161 18.3129 15.1504 18.6372 15.1504 18.9754V21.5254C15.1505 21.6929 15.1176 21.8587 15.0535 22.0134C14.9895 22.1682 14.8956 22.3087 14.7772 22.4272C14.6587 22.5456 14.5182 22.6395 14.3634 22.7035C14.2087 22.7676 14.0429 22.8005 13.8754 22.8004H3.67539C3.50793 22.8005 3.34209 22.7676 3.18736 22.7035C3.03262 22.6395 2.89203 22.5456 2.77362 22.4272C2.6552 22.3087 2.56129 22.1682 2.49725 22.0134C2.43321 21.8587 2.4003 21.6929 2.40039 21.5254V3.67539C2.4003 3.50793 2.43321 3.34209 2.49725 3.18736C2.56129 3.03262 2.6552 2.89203 2.77362 2.77362C2.89203 2.6552 3.03262 2.56129 3.18736 2.49725C3.34209 2.43321 3.50793 2.4003 3.67539 2.40039Z" fill="url(#paint1_linear_638_4716)"/>
<defs>
<linearGradient id="paint0_linear_638_4716" x1="3.08732" y1="21.0258" x2="10.1478" y2="2.83702" gradientUnits="userSpaceOnUse">
<stop stop-color="#0052D4"/>
<stop offset="0.386694" stop-color="#4364F7"/>
<stop offset="1" stop-color="#6FB1FC"/>
</linearGradient>
<linearGradient id="paint1_linear_638_4716" x1="-1.2775" y1="29.4488" x2="19.6002" y2="7.03942" gradientUnits="userSpaceOnUse">
<stop stop-color="#0052D4"/>
<stop offset="0.386694" stop-color="#4364F7"/>
<stop offset="1" stop-color="#6FB1FC"/>
</linearGradient>
</defs>
</svg>
