<svg width="20" height="21" viewBox="0 0 20 21" fill="none" xmlns="http://www.w3.org/2000/svg">
<mask id="mask0_638_8974" style="mask-type:alpha" maskUnits="userSpaceOnUse" x="0" y="0" width="20" height="21">
<rect y="0.5" width="20" height="20" fill="#D9D9D9"/>
</mask>
<g mask="url(#mask0_638_8974)">
<path d="M9.99481 12.7103L4.82683 7.43515C4.65105 7.25573 4.44597 7.16901 4.21159 7.17499C3.97722 7.18097 3.77214 7.27367 3.59636 7.4531C3.42057 7.63252 3.33268 7.84185 3.33268 8.08109C3.33268 8.32032 3.42057 8.52965 3.59636 8.70908L8.99286 14.2354C9.13348 14.3789 9.29169 14.4866 9.46747 14.5584C9.64325 14.6301 9.81903 14.666 9.99481 14.666C10.1706 14.666 10.3464 14.6301 10.5222 14.5584C10.6979 14.4866 10.8561 14.3789 10.9968 14.2354L16.4108 8.70908C16.5866 8.52965 16.6716 8.31733 16.6657 8.07212C16.6599 7.8269 16.5691 7.61458 16.3933 7.43515C16.2175 7.25573 16.0124 7.16602 15.778 7.16602C15.5437 7.16602 15.3386 7.25573 15.1628 7.43515L9.99481 12.7103Z" fill="url(#paint0_linear_638_8974)"/>
</g>
<defs>
<linearGradient id="paint0_linear_638_8974" x1="-1.01268" y1="5.00255" x2="12.1945" y2="18.6742" gradientUnits="userSpaceOnUse">
<stop stop-color="#0052D4"/>
<stop offset="0.386694" stop-color="#4364F7"/>
<stop offset="1" stop-color="#6FB1FC"/>
</linearGradient>
</defs>
</svg>
