<svg width="24" height="24" viewBox="0 0 24 24" fill="none" xmlns="http://www.w3.org/2000/svg">
<path d="M20.4052 8.74862L15.2539 3.59011C14.1736 2.5083 12.684 1.92754 11.1602 2.00725L5.47447 2.28055C3.20019 2.38304 1.39213 4.19364 1.27842 6.45974L1.0055 12.1535C0.937273 13.6794 1.50584 15.1711 2.58613 16.2529L7.73739 21.4115C9.85247 23.5295 13.2866 23.5295 15.4131 21.4115L20.4052 16.4124C22.5316 14.3057 22.5316 10.8667 20.4052 8.74862ZM8.65847 12.9392C6.86179 12.9392 5.3835 11.4702 5.3835 9.65961C5.3835 7.84901 6.86179 6.38003 8.65847 6.38003C10.4552 6.38003 11.9334 7.84901 11.9334 9.65961C11.9334 11.4702 10.4552 12.9392 8.65847 12.9392ZM17.7897 14.2488L13.2412 18.8037C13.0706 18.9745 12.8545 19.0543 12.6385 19.0543C12.4224 19.0543 12.2064 18.9745 12.0358 18.8037C11.706 18.4735 11.706 17.9269 12.0358 17.5967L16.5844 13.0417C16.9141 12.7114 17.46 12.7114 17.7897 13.0417C18.1195 13.3719 18.1195 13.9185 17.7897 14.2488Z" fill="url(#paint0_linear_638_4664)"/>
<defs>
<linearGradient id="paint0_linear_638_4664" x1="28.0577" y1="29.844" x2="9.31961" y2="-2.3365" gradientUnits="userSpaceOnUse">
<stop stop-color="#0052D4"/>
<stop offset="0.386694" stop-color="#4364F7"/>
<stop offset="1" stop-color="#6FB1FC"/>
</linearGradient>
</defs>
</svg>
