<svg width="173" height="112" viewBox="0 0 173 112" fill="none" xmlns="http://www.w3.org/2000/svg">
<path d="M169.754 61.0868V29.8575L164.986 31.4734V61.0868H169.754Z" fill="#FAFBFF"/>
<path d="M141.08 48.4364L87.6625 66.5516C86.6737 66.8869 85.602 66.8869 84.6132 66.5516L31.1956 48.4364V93.2381H31.2513L31.1311 93.8524C31.1311 99.1942 55.7633 111.082 86.1067 111.082C116.45 111.082 141.02 99.1831 141.02 93.8524L140.895 93.2381H141.084L141.08 48.4364Z" fill="#FAFBFF"/>
<path d="M31.1888 39.5824L86.1354 58.214L141.082 39.5824L164.989 31.4741L169.756 29.8582L172.267 29.0057L86.1354 0L-0.000366211 29.0057L31.1888 39.5824Z" fill="#FAFBFF"/>
<path d="M161.734 68.4016V86.6348C161.734 88.1288 162.327 89.5617 163.384 90.6182C164.44 91.6746 165.873 92.2681 167.367 92.2681C168.861 92.2681 170.294 91.6746 171.35 90.6182C172.407 89.5617 173 88.1288 173 86.6348V68.4016C173.005 66.9203 172.424 65.4972 171.384 64.442H163.372C162.323 65.4932 161.734 66.917 161.734 68.4016Z" fill="#FAFBFF"/>
<path d="M162.645 61.0884V64.4537H163.364H171.383H172.098V61.0884H169.756H164.989H162.645Z" fill="#FAFBFF"/>
</svg>
