<svg width="24" height="24" viewBox="0 0 24 24" fill="none" xmlns="http://www.w3.org/2000/svg">
<mask id="mask0_638_4689" style="mask-type:alpha" maskUnits="userSpaceOnUse" x="0" y="0" width="24" height="24">
<rect width="24" height="24" fill="#D9D9D9"/>
</mask>
<g mask="url(#mask0_638_4689)">
<path d="M10.72 17.7H12.88V11.22H10.72V17.7ZM11.8 9.06C12.106 9.06 12.3625 8.9565 12.5695 8.7495C12.7765 8.5425 12.88 8.286 12.88 7.98C12.88 7.674 12.7765 7.4175 12.5695 7.2105C12.3625 7.0035 12.106 6.9 11.8 6.9C11.494 6.9 11.2375 7.0035 11.0305 7.2105C10.8235 7.4175 10.72 7.674 10.72 7.98C10.72 8.286 10.8235 8.5425 11.0305 8.7495C11.2375 8.9565 11.494 9.06 11.8 9.06ZM11.8 23.1C10.306 23.1 8.902 22.8165 7.588 22.2495C6.274 21.6825 5.131 20.913 4.159 19.941C3.187 18.969 2.4175 17.826 1.8505 16.512C1.2835 15.198 1 13.794 1 12.3C1 10.806 1.2835 9.402 1.8505 8.088C2.4175 6.774 3.187 5.631 4.159 4.659C5.131 3.687 6.274 2.9175 7.588 2.3505C8.902 1.7835 10.306 1.5 11.8 1.5C13.294 1.5 14.698 1.7835 16.012 2.3505C17.326 2.9175 18.469 3.687 19.441 4.659C20.413 5.631 21.1825 6.774 21.7495 8.088C22.3165 9.402 22.6 10.806 22.6 12.3C22.6 13.794 22.3165 15.198 21.7495 16.512C21.1825 17.826 20.413 18.969 19.441 19.941C18.469 20.913 17.326 21.6825 16.012 22.2495C14.698 22.8165 13.294 23.1 11.8 23.1Z" fill="url(#paint0_linear_638_4689)"/>
</g>
<defs>
<linearGradient id="paint0_linear_638_4689" x1="28.8308" y1="30.1395" x2="9.55731" y2="-2.9604" gradientUnits="userSpaceOnUse">
<stop stop-color="#0052D4"/>
<stop offset="0.386694" stop-color="#4364F7"/>
<stop offset="1" stop-color="#6FB1FC"/>
</linearGradient>
</defs>
</svg>
