<svg width="52" height="33" viewBox="0 0 52 33" fill="none" xmlns="http://www.w3.org/2000/svg">
<path d="M50.426 18.147V8.87036L49.0098 9.35036V18.147H50.426Z" fill="#101032"/>
<path d="M41.9087 14.39L26.041 19.7711C25.7473 19.8707 25.429 19.8707 25.1353 19.7711L9.26759 14.39V27.6984H9.28411L9.24841 27.8808C9.24841 29.4676 16.5654 32.9988 25.5789 32.9988C34.5924 32.9988 41.8909 29.4643 41.8909 27.8808L41.8539 27.6984H41.91L41.9087 14.39Z" fill="url(#paint0_linear_638_4723)"/>
<path d="M9.26474 11.7594L25.5866 17.2939L41.9085 11.7594L49.01 9.35083L50.4262 8.87084L51.1719 8.61762L25.5866 0.00146484L0 8.61762L9.26474 11.7594Z" fill="url(#paint1_linear_638_4723)"/>
<path d="M48.0435 20.3199V25.736C48.0435 26.1798 48.2198 26.6055 48.5336 26.9193C48.8474 27.2331 49.273 27.4094 49.7168 27.4094C50.1606 27.4094 50.5863 27.2331 50.9001 26.9193C51.2139 26.6055 51.3902 26.1798 51.3902 25.736V20.3199C51.3915 19.8799 51.219 19.4571 50.9102 19.1437H48.5301C48.2186 19.4559 48.0437 19.8789 48.0435 20.3199Z" fill="#101032"/>
<path d="M48.313 18.1472V19.1469H48.5265H50.9087H51.1209V18.1472H50.4254H49.0092H48.313Z" fill="url(#paint2_linear_638_4723)"/>
<defs>
<linearGradient id="paint0_linear_638_4723" x1="51.3317" y1="39.0635" x2="39.9198" y2="4.66474" gradientUnits="userSpaceOnUse">
<stop stop-color="#0052D4"/>
<stop offset="0.386694" stop-color="#4364F7"/>
<stop offset="1" stop-color="#6FB1FC"/>
</linearGradient>
<linearGradient id="paint1_linear_638_4723" x1="65.9331" y1="22.9296" x2="59.2113" y2="-11.2313" gradientUnits="userSpaceOnUse">
<stop stop-color="#0052D4"/>
<stop offset="0.386694" stop-color="#4364F7"/>
<stop offset="1" stop-color="#6FB1FC"/>
</linearGradient>
<linearGradient id="paint2_linear_638_4723" x1="51.9309" y1="19.4727" x2="51.5232" y2="17.5059" gradientUnits="userSpaceOnUse">
<stop stop-color="#0052D4"/>
<stop offset="0.386694" stop-color="#4364F7"/>
<stop offset="1" stop-color="#6FB1FC"/>
</linearGradient>
</defs>
</svg>
