<svg width="24" height="24" viewBox="0 0 24 24" fill="none" xmlns="http://www.w3.org/2000/svg">
<path d="M17.53 7.77C17.46 7.76 17.39 7.76 17.32 7.77C15.77 7.72 14.54 6.45 14.54 4.89C14.54 3.3 15.83 2 17.43 2C19.02 2 20.32 3.29 20.32 4.89C20.31 6.45 19.08 7.72 17.53 7.77Z" fill="url(#paint0_linear_638_4683)"/>
<path d="M20.79 14.7C19.67 15.45 18.1 15.73 16.65 15.54C17.03 14.72 17.23 13.81 17.24 12.85C17.24 11.85 17.02 10.9 16.6 10.07C18.08 9.87004 19.65 10.15 20.78 10.9C22.36 11.94 22.36 13.65 20.79 14.7Z" fill="url(#paint1_linear_638_4683)"/>
<path d="M6.44003 7.77C6.51003 7.76 6.58003 7.76 6.65003 7.77C8.20003 7.72 9.43003 6.45 9.43003 4.89C9.43003 3.29 8.14003 2 6.54003 2C4.95003 2 3.66003 3.29 3.66003 4.89C3.66003 6.45 4.89003 7.72 6.44003 7.77Z" fill="url(#paint2_linear_638_4683)"/>
<path d="M6.55 12.85C6.55 13.82 6.75999 14.74 7.14 15.57C5.73 15.72 4.26 15.42 3.18 14.71C1.6 13.66 1.6 11.95 3.18 10.9C4.25 10.18 5.75999 9.88998 7.18 10.05C6.77 10.89 6.55 11.84 6.55 12.85Z" fill="url(#paint3_linear_638_4683)"/>
<path d="M12.12 15.87C12.04 15.86 11.95 15.86 11.86 15.87C10.02 15.81 8.55005 14.3 8.55005 12.44C8.56005 10.54 10.09 9 12 9C13.9 9 15.44 10.54 15.44 12.44C15.43 14.3 13.97 15.81 12.12 15.87Z" fill="url(#paint4_linear_638_4683)"/>
<path d="M8.87005 17.94C7.36005 18.95 7.36005 20.61 8.87005 21.61C10.59 22.76 13.41 22.76 15.13 21.61C16.64 20.6 16.64 18.94 15.13 17.94C13.42 16.79 10.6 16.79 8.87005 17.94Z" fill="url(#paint5_linear_638_4683)"/>
<defs>
<linearGradient id="paint0_linear_638_4683" x1="21.9873" y1="9.65046" x2="16.8432" y2="0.800749" gradientUnits="userSpaceOnUse">
<stop stop-color="#0052D4"/>
<stop offset="0.386694" stop-color="#4364F7"/>
<stop offset="1" stop-color="#6FB1FC"/>
</linearGradient>
<linearGradient id="paint1_linear_638_4683" x1="23.5142" y1="17.4195" x2="18.4277" y2="9.03398" gradientUnits="userSpaceOnUse">
<stop stop-color="#0052D4"/>
<stop offset="0.386694" stop-color="#4364F7"/>
<stop offset="1" stop-color="#6FB1FC"/>
</linearGradient>
<linearGradient id="paint2_linear_638_4683" x1="11.0945" y1="9.65046" x2="5.94595" y2="0.808495" gradientUnits="userSpaceOnUse">
<stop stop-color="#0052D4"/>
<stop offset="0.386694" stop-color="#4364F7"/>
<stop offset="1" stop-color="#6FB1FC"/>
</linearGradient>
<linearGradient id="paint3_linear_638_4683" x1="8.67567" y1="17.4329" x2="3.49658" y2="9.19824" gradientUnits="userSpaceOnUse">
<stop stop-color="#0052D4"/>
<stop offset="0.386694" stop-color="#4364F7"/>
<stop offset="1" stop-color="#6FB1FC"/>
</linearGradient>
<linearGradient id="paint4_linear_638_4683" x1="17.4275" y1="18.1089" x2="11.3063" y2="7.56587" gradientUnits="userSpaceOnUse">
<stop stop-color="#0052D4"/>
<stop offset="0.386694" stop-color="#4364F7"/>
<stop offset="1" stop-color="#6FB1FC"/>
</linearGradient>
<linearGradient id="paint5_linear_638_4683" x1="18.7217" y1="24.2308" x2="15.13" y2="14.4839" gradientUnits="userSpaceOnUse">
<stop stop-color="#0052D4"/>
<stop offset="0.386694" stop-color="#4364F7"/>
<stop offset="1" stop-color="#6FB1FC"/>
</linearGradient>
</defs>
</svg>
