<svg width="24" height="25" viewBox="0 0 24 25" fill="none" xmlns="http://www.w3.org/2000/svg">
<g clip-path="url(#clip0_638_4631)">
<path fill-rule="evenodd" clip-rule="evenodd" d="M17.0957 13.7305C18.5899 14.7448 19.6369 16.119 19.6369 17.9513V21.2232H22.9089C23.5087 21.2232 23.9995 20.7324 23.9995 20.1326V17.9513C23.9995 15.5737 20.1059 14.1667 17.0957 13.7305Z" fill="url(#paint0_linear_638_4631)"/>
<path d="M8.72783 12.4967C11.1372 12.4967 13.0904 10.5435 13.0904 8.13408C13.0904 5.72469 11.1372 3.77148 8.72783 3.77148C6.31844 3.77148 4.36523 5.72469 4.36523 8.13408C4.36523 10.5435 6.31844 12.4967 8.72783 12.4967Z" fill="url(#paint1_linear_638_4631)"/>
<path fill-rule="evenodd" clip-rule="evenodd" d="M15.2709 12.4967C17.6812 12.4967 19.6335 10.5444 19.6335 8.13408C19.6335 5.72375 17.6812 3.77148 15.2709 3.77148C14.7583 3.77148 14.2784 3.88055 13.8203 4.03324C14.7256 5.15661 15.2709 6.58536 15.2709 8.13408C15.2709 9.6828 14.7256 11.1116 13.8203 12.2349C14.2784 12.3876 14.7583 12.4967 15.2709 12.4967Z" fill="url(#paint2_linear_638_4631)"/>
<path fill-rule="evenodd" clip-rule="evenodd" d="M8.72715 13.5898C5.81511 13.5898 0.00195312 15.0513 0.00195312 17.9524V20.1337C0.00195312 20.7336 0.492745 21.2244 1.0926 21.2244H16.3617C16.9615 21.2244 17.4523 20.7336 17.4523 20.1337V17.9524C17.4523 15.0513 11.6392 13.5898 8.72715 13.5898Z" fill="url(#paint3_linear_638_4631)"/>
</g>
<defs>
<linearGradient id="paint0_linear_638_4631" x1="25.991" y1="23.6651" x2="19.0477" y2="12.6781" gradientUnits="userSpaceOnUse">
<stop stop-color="#0052D4"/>
<stop offset="0.386694" stop-color="#4364F7"/>
<stop offset="1" stop-color="#6FB1FC"/>
</linearGradient>
<linearGradient id="paint1_linear_638_4631" x1="15.6073" y1="15.3402" x2="7.82191" y2="1.96973" gradientUnits="userSpaceOnUse">
<stop stop-color="#0052D4"/>
<stop offset="0.386694" stop-color="#4364F7"/>
<stop offset="1" stop-color="#6FB1FC"/>
</linearGradient>
<linearGradient id="paint2_linear_638_4631" x1="21.3103" y1="15.3402" x2="12.4391" y2="5.18966" gradientUnits="userSpaceOnUse">
<stop stop-color="#0052D4"/>
<stop offset="0.386694" stop-color="#4364F7"/>
<stop offset="1" stop-color="#6FB1FC"/>
</linearGradient>
<linearGradient id="paint3_linear_638_4631" x1="22.4861" y1="23.7125" x2="18.7385" y2="9.00138" gradientUnits="userSpaceOnUse">
<stop stop-color="#0052D4"/>
<stop offset="0.386694" stop-color="#4364F7"/>
<stop offset="1" stop-color="#6FB1FC"/>
</linearGradient>
<clipPath id="clip0_638_4631">
<rect width="24" height="24" fill="white" transform="translate(0 0.5)"/>
</clipPath>
</defs>
</svg>
